<?xml version="1.0" standalone="no"?>
<!DOCTYPE svg PUBLIC "-//W3C//DTD SVG 20010904//EN"
 "http://www.w3.org/TR/2001/REC-SVG-20010904/DTD/svg10.dtd">
<svg version="1.0" xmlns="http://www.w3.org/2000/svg"
 width="300.000000pt" height="161.000000pt" viewBox="0 0 300.000000 161.000000"
 preserveAspectRatio="xMidYMid meet">

<g transform="translate(0.000000,161.000000) scale(0.100000,-0.100000)"
fill="#000000" stroke="none">
<path d="M1182 303 c-13 -2 -38 -20 -57 -38 -56 -56 -60 -154 -8 -215 46 -55
140 -64 197 -19 78 61 74 200 -6 253 -26 17 -91 27 -126 19z m88 -63 c30 -16
45 -79 30 -124 -13 -40 -35 -56 -76 -56 -45 0 -74 35 -74 90 0 81 57 124 120
90z"/>
<path d="M1570 293 c-41 -21 -58 -60 -44 -100 7 -21 25 -36 72 -57 50 -24 62
-34 60 -50 -3 -19 -10 -21 -66 -21 -52 0 -63 -3 -68 -18 -9 -28 7 -38 67 -43
69 -7 120 17 132 61 14 51 -5 83 -70 112 -63 29 -74 39 -66 61 5 11 19 13 59
10 47 -4 53 -2 58 16 7 28 -2 35 -54 41 -33 5 -55 1 -80 -12z"/>
<path d="M1866 300 c-60 -19 -96 -76 -96 -153 0 -151 204 -200 272 -66 34 66
15 160 -42 201 -30 21 -95 30 -134 18z m103 -76 c29 -37 29 -110 -1 -141 -40
-43 -109 -27 -128 31 -32 97 70 184 129 110z"/>
<path d="M0 275 c0 -23 4 -25 45 -25 l45 0 0 -120 0 -120 30 0 29 0 3 117 3
118 43 3 c37 3 42 6 42 28 l0 24 -120 0 -120 0 0 -25z"/>
<path d="M290 155 l0 -145 30 0 30 0 0 145 0 145 -30 0 -30 0 0 -145z"/>
<path d="M437 277 c-4 -12 -9 -77 -13 -145 l-7 -122 31 0 32 0 0 90 c0 50 4
90 9 90 5 0 22 -31 37 -70 24 -62 30 -70 53 -70 23 0 30 9 55 71 35 85 46 77
46 -33 l0 -78 31 0 32 0 -7 116 c-10 168 -12 176 -49 172 -28 -3 -33 -10 -66
-85 -32 -75 -51 -102 -51 -72 0 6 -15 44 -34 85 -32 68 -37 74 -64 74 -23 0
-31 -6 -35 -23z"/>
<path d="M810 156 l0 -144 53 -6 c64 -7 123 6 151 33 28 28 27 88 -2 111 -19
16 -20 20 -7 30 25 21 19 76 -11 99 -22 17 -41 21 -105 21 l-79 0 0 -144z
m148 67 c3 -17 -3 -26 -23 -33 -51 -19 -65 -14 -65 26 l0 35 43 -3 c35 -2 43
-7 45 -25z m-7 -93 c23 -13 25 -55 3 -64 -9 -3 -31 -6 -50 -6 -33 0 -34 1 -34
40 0 38 2 40 31 40 17 0 39 -5 50 -10z"/>
<path d="M2111 203 c0 -54 5 -114 12 -133 26 -75 144 -93 199 -31 27 30 28 35
28 146 l0 115 -30 0 -30 0 0 -104 c0 -115 -9 -136 -59 -136 -45 0 -51 15 -51
132 l0 108 -35 0 -35 0 1 -97z"/>
<path d="M2420 155 l0 -145 30 0 30 0 0 98 1 97 28 -35 c16 -19 46 -62 68 -97
31 -52 43 -62 66 -63 l27 0 0 145 0 145 -30 0 -29 0 -3 -85 -3 -84 -63 84
c-54 73 -67 85 -93 85 l-29 0 0 -145z"/>
<path d="M2740 156 l0 -143 46 -7 c51 -7 124 7 159 30 34 22 59 94 51 145 -14
87 -62 119 -180 119 l-76 0 0 -144z m165 69 c19 -18 25 -35 25 -70 0 -59 -32
-95 -85 -95 l-35 0 0 95 0 95 35 0 c25 0 44 -8 60 -25z"/>
</g>
</svg>
