<?xml version="1.0" encoding="UTF-8" standalone="no" ?>
<!DOCTYPE svg PUBLIC "-//W3C//DTD SVG 1.1//EN" "http://www.w3.org/Graphics/SVG/1.1/DTD/svg11.dtd">
<svg xmlns="http://www.w3.org/2000/svg" xmlns:xlink="http://www.w3.org/1999/xlink" version="1.1" width="500" height="500" viewBox="0 0 500 500" xml:space="preserve">
<desc>Created with Fabric.js 4.6.0</desc>
<defs>
</defs>
<g transform="matrix(1 0 0 1 256.02 256.02)" id="MowbSvtP341t20NzalYek"  >
<path style="stroke: none; stroke-width: 1; stroke-dasharray: none; stroke-linecap: butt; stroke-dashoffset: 0; stroke-linejoin: miter; stroke-miterlimit: 4; fill: rgb(255,233,0); fill-rule: nonzero; opacity: 1;" vector-effect="non-scaling-stroke"  transform=" translate(-256.02, -256.02)" d="M 394 480 C 390.63227558706024 480.01314497675907 387.34627127542893 478.96330334365 384.61 477 L 256 383.76 L 127.39 477 C 121.75193304369269 481.0893100906082 114.11617094689967 481.061556104442 108.50797970089207 476.9313688242865 C 102.89978845488446 472.801181544131 100.60769556016871 465.5175050518256 102.84 458.92 L 153 310.35 L 23 221.2 C 17.220270051065597 217.2408827223989 14.688344573901562 209.98212503803217 16.751845012516903 203.28721250385794 C 18.815345451132245 196.59229996968372 24.9943202316708 192.01840880310203 31.999999999999996 192 L 192.38 192 L 240.78 43.05000000000001 C 242.9189961899523 36.452780823115695 249.06468417673136 31.984734035386275 256 31.984734035386275 C 262.9353158232687 31.984734035386275 269.0810038100477 36.452780823115695 271.22 43.05000000000002 L 319.62 192.05 L 480 192.05 C 487.0149045228762 192.04654551520383 493.21400626729644 196.61290468102027 495.2906924246262 203.31337272455937 C 497.3673785819559 210.01384076809845 494.83729778367996 217.28564863293545 489.05 221.25 L 359 310.35 L 409.13 458.88 C 410.77777507133936 463.75850713157683 409.97691369981726 469.13190846242446 406.97815137842787 473.3178873274438 C 403.97938905703853 477.50386619246325 399.1492629930798 479.990772504534 394 480 z" stroke-linecap="round" />
</g>
</svg>